<svg width="40" height="45" viewBox="0 0 40 45" fill="none" xmlns="http://www.w3.org/2000/svg">
<path d="M39.5136 40.9295L37.9525 12.6221H30.1538V10.3367C30.1538 4.6368 25.517 0 19.8173 0C14.1176 0 9.48081 4.63702 9.48081 10.3367V12.6221H1.3446L0.0015781 41.0519L0.000218542 41.1012C-0.0108065 42.1243 0.395772 43.1285 1.1151 43.855C1.83465 44.5824 2.83432 45 3.85785 45H35.6618C36.7166 45 37.7381 44.5606 38.4637 43.794C39.1891 43.0274 39.5719 41.9834 39.5136 40.9295ZM12.1768 10.3367C12.1768 6.1236 15.6042 2.69595 19.8173 2.69595C24.0302 2.69595 27.4579 6.1236 27.4579 10.3367V12.6221H12.1765L12.1768 10.3367ZM36.5056 41.9404C36.2867 42.1713 35.9793 42.3038 35.6616 42.3038H3.85763C3.54938 42.3038 3.24854 42.1783 3.03141 41.9587C2.81946 41.7449 2.69775 41.4508 2.69573 41.1493L3.9159 15.318H9.48038C9.48038 15.318 10.1372 15.318 10.8817 15.318C11.6262 15.318 12.1763 15.318 12.1763 15.318H27.4576H35.4006L36.821 41.0783C36.8392 41.3955 36.724 41.7098 36.5056 41.9404Z" fill="white"/>
</svg>
