<svg width="1037" height="3118" viewBox="0 0 1037 3118" fill="none" xmlns="http://www.w3.org/2000/svg">
<path d="M77.945 2.0347C221.415 3.82156 364.885 2.0347 508.355 2.0347C651.826 2.0347 805.44 3.83891 953.955 2.0347C953.936 2.0347 955.921 38.1187 966.622 63.152C984.704 105.516 1032.44 127.288 1032.46 127.184L1035 2987.94C1035 2987.94 1002.34 2998.17 981.829 3022.86C978.973 3026.29 961.522 3047.87 959.036 3078.16C957.924 3091.64 959.036 3116 959.036 3116C959.036 3116 75.4969 3113.09 75.4227 3113.09C75.4227 3113.09 74.2173 3045.93 41.7807 3015.43C27.4819 3002.01 2 2990.83 2 2990.83C2 2990.68 4.54077 130.081 4.54077 130.081C4.54077 130.133 55.3748 105.169 70.3783 60.2202C78.2788 36.5054 77.9821 1.98266 77.9821 2.00001L77.945 2.0347Z" stroke="black" stroke-width="3" stroke-miterlimit="10"/>
</svg>
