<svg width="268" height="870" viewBox="0 0 268 870" fill="none" xmlns="http://www.w3.org/2000/svg">
<path d="M133.239 2.00605C194.07 73.0749 220.101 104.897 237.098 140.295C237.098 140.295 254.607 176.745 261.832 215.95C262.655 220.414 263.269 224.759 263.269 224.759C266.865 250.176 264.086 257.233 264.086 342.862C263.872 400.102 263.833 457.341 263.962 514.592C264.239 632.738 265.247 750.872 267 869C178.335 868.795 89.6648 868.589 1 868.384C1.52975 703.535 2.40326 538.705 3.61491 373.88C3.9925 322.671 4.39826 271.473 4.84347 220.27C4.84347 220.27 4.85475 220.215 4.85475 220.209C4.85475 220.209 5.59865 216.765 6.34818 213.491C26.0953 127.644 66.9928 82.7296 66.9928 82.7296C70.8926 78.452 80.9183 67.9757 93.0518 51.9349C98.6874 44.4854 100.062 42.0687 105.433 34.8912C111.491 26.7832 120.638 15.2918 133.239 2V2.00605Z" stroke="black" stroke-miterlimit="10"/>
</svg>
