<svg width="900" height="2811" viewBox="0 0 900 2811" fill="none" xmlns="http://www.w3.org/2000/svg">
<g clip-path="url(#clip0_198_61798)">
<rect width="900" height="2811" fill="white"/>
<path d="M101.918 66.0296C215.111 67.5513 328.303 66.0296 441.496 66.0296C554.689 66.0296 675.886 67.5661 793.058 66.0296C793.044 66.0296 794.609 96.7601 803.052 118.079C817.318 154.158 854.981 172.7 854.995 172.611L857 2608.94C857 2608.94 831.233 2617.65 815.05 2638.68C812.797 2641.6 799.028 2659.98 797.067 2685.78C796.19 2697.26 797.067 2718 797.067 2718C797.067 2718 99.9864 2715.52 99.9279 2715.52C99.9279 2715.52 98.9768 2658.33 73.3855 2632.35C62.1043 2620.92 42 2611.4 42 2611.4C42 2611.27 44.0046 175.079 44.0046 175.079C44.0046 175.123 84.1108 153.863 95.948 115.583C102.181 95.3861 101.947 65.9852 101.947 66L101.918 66.0296Z" stroke="black" stroke-width="3" stroke-miterlimit="10"/>
<path d="M449.518 526C607.998 696.417 675.815 772.727 720.096 857.599C720.096 857.599 765.714 945.002 784.536 1039.02C786.68 1049.72 788.28 1060.16 788.28 1060.16C797.648 1121.1 790.409 1138.03 790.409 1343.35C789.851 1480.61 789.749 1617.86 790.086 1755.16C790.806 2038.46 793.434 2321.74 798 2605C567.005 2604.5 335.995 2604.02 105 2603.52C106.38 2208.23 108.656 1812.98 111.813 1417.75C112.796 1294.95 113.853 1172.18 115.013 1049.4C115.013 1049.4 115.043 1049.27 115.043 1049.25C115.043 1049.25 116.981 1041 118.933 1033.14C170.38 827.288 276.929 719.585 276.929 719.585C287.089 709.325 313.208 684.196 344.819 645.748C359.501 627.878 363.084 622.097 377.076 604.871C392.859 585.435 416.689 557.876 449.518 526Z" stroke="black" stroke-width="3" stroke-miterlimit="10"/>
<path d="M449.518 547.015C607.998 715.712 675.815 791.249 720.096 875.261C720.096 875.261 765.714 961.776 784.536 1054.85C786.68 1065.44 788.28 1075.76 788.28 1075.76C797.648 1136.09 790.409 1152.85 790.409 1356.11C789.851 1491.97 789.749 1627.84 790.086 1763.74C790.806 2044.18 793.434 2324.6 798 2605C567.005 2604.52 335.995 2604.02 105 2603.54C106.38 2212.24 108.656 1820.98 111.813 1429.74C112.796 1308.19 113.853 1186.65 115.013 1065.12C115.013 1065.12 115.043 1064.99 115.043 1064.98C115.043 1064.98 116.981 1056.81 118.933 1049.02C170.38 845.257 276.929 738.632 276.929 738.632C287.089 728.475 313.208 703.608 344.819 665.539C359.501 647.858 363.084 642.121 377.076 625.07C392.859 605.823 416.689 578.541 449.518 547V547.015Z" stroke="black" stroke-width="3" stroke-miterlimit="10"/>
<path d="M448.021 501.015C606.272 673.482 673.991 750.705 718.209 836.609C718.209 836.609 763.76 925.064 782.556 1020.2C784.696 1031.04 786.294 1041.58 786.294 1041.58C795.648 1103.26 788.42 1120.39 788.42 1328.19C787.863 1467.1 787.761 1606 788.098 1744.94C788.816 2031.65 791.44 2318.33 796 2605C565.338 2604.5 334.662 2604 104 2603.5C105.378 2203.46 107.651 1803.45 110.803 1403.46C111.785 1279.19 112.841 1154.95 113.999 1030.69C113.999 1030.69 114.028 1030.56 114.028 1030.54C114.028 1030.54 115.963 1022.18 117.913 1014.24C169.286 805.907 275.681 696.911 275.681 696.911C285.826 686.531 311.908 661.107 343.473 622.18C358.134 604.102 361.711 598.237 375.683 580.819C391.444 561.143 415.239 533.256 448.021 501V501.015Z" stroke="black" stroke-width="3" stroke-miterlimit="10"/>
<ellipse cx="846.5" cy="2694.5" rx="10.5" ry="11.5" fill="black"/>
<ellipse cx="847" cy="2696" rx="8" ry="9" fill="white"/>
<ellipse cx="53" cy="2693.5" rx="11" ry="11.5" fill="black"/>
<ellipse cx="53" cy="2692.5" rx="8" ry="9.5" fill="white"/>
<circle cx="53" cy="77" r="11" fill="black"/>
<ellipse cx="53" cy="77" rx="8" ry="9" fill="white"/>
<ellipse cx="846.5" cy="77" rx="10.5" ry="11" fill="black"/>
<ellipse cx="847" cy="77" rx="8" ry="9" fill="white"/>
<path d="M224.718 852.72C223.891 852.96 223.305 853.267 222.958 853.64C222.638 853.987 222.478 854.547 222.478 855.32V859.84C222.478 861.573 222.998 862.96 224.038 864L223.238 864.64C221.025 862.533 218.598 861.48 215.958 861.48C212.811 861.48 210.371 862.987 208.638 866C207.438 864.107 205.971 863.16 204.238 863.16C203.385 863.16 202.665 863.4 202.078 863.88C201.518 864.36 201.238 864.987 201.238 865.76C201.238 866.56 201.545 867.08 202.158 867.32C202.478 867.453 202.638 867.573 202.638 867.68C202.638 867.867 202.478 867.96 202.158 867.96C201.438 867.96 200.851 867.573 200.398 866.8C199.998 866.107 199.798 865.373 199.798 864.6C199.798 861.827 201.625 860.16 205.278 859.6V849.88C204.318 849.933 203.731 850.187 203.518 850.64C203.385 850.933 203.318 851.6 203.318 852.64H202.078V844.64H203.318V845.64C203.318 846.333 203.478 846.787 203.798 847C204.038 847.16 204.531 847.227 205.278 847.2V842.24C205.278 839.44 203.718 838.08 200.598 838.16V837.32H203.718C205.905 837.32 207.638 837.027 208.918 836.44C209.478 836.173 210.425 835.547 211.758 834.56C212.931 833.68 214.238 833.027 215.678 832.6C216.131 832.467 216.491 832.4 216.758 832.4C217.078 832.4 217.398 832.613 217.718 833.04C219.718 835.68 222.051 837.107 224.718 837.32V838.16C223.705 838.24 223.025 838.493 222.678 838.92C222.358 839.32 222.198 840.053 222.198 841.12V845.64C222.198 847 221.531 847.947 220.198 848.48C219.585 848.72 218.331 848.947 216.438 849.16C217.265 849.267 218.518 849.787 220.198 850.72C221.771 851.627 222.891 852.08 223.558 852.08C223.878 852.08 224.265 852.013 224.718 851.88V852.72ZM216.118 846.52V842.24C216.118 841.04 215.611 839.973 214.598 839.04C213.718 838.213 212.651 837.653 211.398 837.36V848.84C212.918 848.76 213.905 848.653 214.358 848.52C215.531 848.173 216.118 847.507 216.118 846.52ZM216.118 860.24V853.48C216.118 851.88 215.691 850.867 214.838 850.44C214.411 850.227 213.265 850.04 211.398 849.88V855.28C211.398 857.013 211.598 858.213 211.998 858.88C212.531 859.787 213.611 860.24 215.238 860.24H216.118ZM240.599 848.52C239.639 848.947 238.826 850.053 238.159 851.84C237.679 853.12 237.332 854.52 237.119 856.04H237.079C236.999 854.813 236.639 853.427 235.999 851.88C235.199 849.96 234.332 849 233.399 849C232.599 849 232.199 849.653 232.199 850.96V859.08C233.399 860.44 234.546 861.253 235.639 861.52C236.199 861.653 237.612 861.72 239.879 861.72C238.386 862.2 237.132 862.76 236.119 863.4C235.319 863.907 234.266 864.773 232.959 866C232.372 864.933 231.226 863.96 229.519 863.08C227.839 862.173 226.359 861.72 225.079 861.72C225.692 861.667 226.266 861.067 226.799 859.92C227.279 858.88 227.519 858 227.519 857.28V852.76C227.519 850.867 226.692 849.453 225.039 848.52C226.772 848.52 228.306 846.853 229.639 843.52C230.679 846.267 231.879 847.64 233.239 847.64C234.599 847.64 235.852 846.267 236.999 843.52L238.279 846.44C238.812 847.373 239.586 848.067 240.599 848.52ZM258.096 861.4C256.976 862.013 256.122 862.653 255.536 863.32C255.056 863.853 254.496 864.747 253.856 866C252.362 863.307 250.896 861.96 249.456 861.96C247.989 861.96 246.509 863.307 245.016 866C244.242 864.56 243.722 863.667 243.456 863.32C242.869 862.6 242.056 861.96 241.016 861.4C242.402 860.973 243.096 859.72 243.096 857.64C243.096 856.173 242.696 855.067 241.896 854.32C242.749 854.72 243.509 854.92 244.176 854.92C244.976 854.92 245.869 854.56 246.856 853.84C247.842 853.12 248.589 852.76 249.096 852.76C249.789 852.76 250.549 853.133 251.376 853.88V851.08C251.376 850.493 251.176 849.96 250.776 849.48C250.402 848.973 249.949 848.72 249.416 848.72C247.976 848.72 246.509 850.067 245.016 852.76C244.269 851.373 243.749 850.493 243.456 850.12C242.922 849.427 242.109 848.8 241.016 848.24C242.189 847.68 243.029 847.04 243.536 846.32C243.856 845.867 244.349 844.92 245.016 843.48C246.402 846.467 247.882 847.96 249.456 847.96C251.002 847.96 252.469 846.467 253.856 843.48C254.442 844.787 254.976 845.733 255.456 846.32C256.042 846.987 256.922 847.627 258.096 848.24C257.456 848.533 256.936 849.013 256.536 849.68C256.136 850.347 255.936 851.04 255.936 851.76V857.16C255.936 858.307 256.042 859.147 256.256 859.68C256.522 860.373 257.136 860.947 258.096 861.4ZM251.376 858V855.48C250.949 854.36 250.269 853.8 249.336 853.8C248.136 853.8 247.536 855.013 247.536 857.44C247.536 858.587 247.602 859.387 247.736 859.84C248.002 860.72 248.562 861.16 249.416 861.16C250.722 861.16 251.376 860.107 251.376 858ZM273.824 861.24C272.864 861.267 271.611 861.88 270.064 863.08C269.371 863.613 268.278 864.587 266.784 866C266.278 865.093 265.118 864.093 263.304 863C261.491 861.88 260.064 861.293 259.024 861.24C259.771 861.187 260.371 860.667 260.824 859.68C261.224 858.853 261.424 858.013 261.424 857.16V852.68C261.424 850.627 260.611 849.147 258.984 848.24C263.811 848.24 267.278 846.667 269.384 843.52C270.078 844.827 270.664 845.76 271.144 846.32C271.758 847.04 272.651 847.68 273.824 848.24C272.864 848.667 272.024 849.8 271.304 851.64C270.771 852.973 270.398 854.4 270.184 855.92H270.104C269.891 854.107 269.531 852.507 269.024 851.12C268.198 848.907 267.198 847.84 266.024 847.92V856.84C266.024 859.773 268.624 861.24 273.824 861.24ZM289.098 861.24C287.738 861.373 286.391 861.893 285.058 862.8C283.751 863.707 282.751 864.773 282.058 866C281.391 864.827 280.284 863.787 278.738 862.88C277.351 862.053 275.911 861.507 274.418 861.24C275.938 860.547 276.698 859.4 276.698 857.8V852.68C276.698 850.6 275.884 849.107 274.258 848.2C276.338 848.2 278.271 847.827 280.058 847.08C282.031 846.253 283.564 845.053 284.658 843.48C285.298 844.707 285.884 845.64 286.418 846.28C287.084 847.053 287.978 847.693 289.098 848.2C288.431 848.787 287.924 849.76 287.578 851.12C287.204 852.613 286.778 853.627 286.298 854.16C285.364 855.227 283.698 856.067 281.298 856.68L281.258 857.36C281.151 859.147 282.071 860.32 284.018 860.88C285.004 861.147 286.698 861.267 289.098 861.24ZM284.778 852.36C284.778 851.587 284.378 850.653 283.578 849.56C282.778 848.44 282.018 847.88 281.298 847.88V855.76C282.204 855.573 283.004 855.187 283.698 854.6C284.418 854.013 284.778 853.267 284.778 852.36ZM300.05 834.64C298.904 834.96 298.01 835.96 297.37 837.64C296.864 838.947 296.61 840.333 296.61 841.8V856.84C296.61 858.013 296.73 858.867 296.97 859.4C297.29 860.067 297.917 860.627 298.85 861.08C297.784 861.667 296.89 862.36 296.17 863.16C295.69 863.693 295.064 864.64 294.29 866C293.624 864.773 292.997 863.827 292.41 863.16C291.717 862.36 290.81 861.667 289.69 861.08C290.65 860.653 291.264 860.093 291.53 859.4C291.744 858.867 291.85 858.013 291.85 856.84V852.32C291.85 850.053 291.117 848.507 289.65 847.68C290.637 847.093 291.277 846.427 291.57 845.68C291.784 845.12 291.89 844.2 291.89 842.92C291.89 840.467 291.117 838.987 289.57 838.48C289.757 838.507 290.01 838.52 290.33 838.52C291.69 838.52 293.33 837.84 295.25 836.48C297.277 835.04 298.877 834.213 300.05 834V834.64ZM314.449 861.24C313.089 861.373 311.743 861.893 310.409 862.8C309.103 863.707 308.103 864.773 307.409 866C306.743 864.827 305.636 863.787 304.089 862.88C302.703 862.053 301.263 861.507 299.769 861.24C301.289 860.547 302.049 859.4 302.049 857.8V852.68C302.049 850.6 301.236 849.107 299.609 848.2C301.689 848.2 303.623 847.827 305.409 847.08C307.383 846.253 308.916 845.053 310.009 843.48C310.649 844.707 311.236 845.64 311.769 846.28C312.436 847.053 313.329 847.693 314.449 848.2C313.783 848.787 313.276 849.76 312.929 851.12C312.556 852.613 312.129 853.627 311.649 854.16C310.716 855.227 309.049 856.067 306.649 856.68L306.609 857.36C306.503 859.147 307.423 860.32 309.369 860.88C310.356 861.147 312.049 861.267 314.449 861.24ZM310.129 852.36C310.129 851.587 309.729 850.653 308.929 849.56C308.129 848.44 307.369 847.88 306.649 847.88V855.76C307.556 855.573 308.356 855.187 309.049 854.6C309.769 854.013 310.129 853.267 310.129 852.36ZM325.802 851.6H324.922V850.88C324.949 850.667 324.962 850.427 324.962 850.16C324.962 849.2 324.775 848.56 324.402 848.24C324.055 847.92 323.375 847.76 322.362 847.76V856.84C322.362 859.32 323.122 860.92 324.642 861.64C323.389 862.333 322.495 862.92 321.962 863.4C321.349 863.987 320.722 864.853 320.082 866C319.362 864.747 318.735 863.867 318.202 863.36C317.829 862.987 316.922 862.413 315.482 861.64C316.389 861.213 317.002 860.547 317.322 859.64C317.535 859.027 317.642 858.093 317.642 856.84V847.76H314.922V845.96H317.642V841.8C317.642 841.08 317.269 840.4 316.522 839.76C316.442 839.68 316.029 839.347 315.282 838.76L315.322 838.72C315.962 838.64 316.869 838.44 318.042 838.12C318.655 837.907 319.869 837.133 321.682 835.8C323.069 834.787 324.415 834.187 325.722 834L325.682 834.52C323.469 835.213 322.362 837.627 322.362 841.76V845.96C323.615 845.96 324.375 845.787 324.642 845.44C324.829 845.2 324.922 844.427 324.922 843.12H325.802V851.6ZM344.236 861.72C339.809 861.72 336.396 863.147 333.996 866C332.663 864.427 331.316 863.64 329.956 863.64C328.649 863.64 327.689 864.427 327.076 866H326.836C326.969 864.08 327.409 862.707 328.156 861.88C328.556 861.453 329.343 860.96 330.516 860.4C331.689 859.84 332.516 859.24 332.996 858.6C333.369 859.24 333.983 859.947 334.836 860.72C335.769 861.573 336.556 862 337.196 862C337.623 862 337.836 861.747 337.836 861.24V857.64C337.836 855.853 336.689 854.96 334.396 854.96C332.103 854.96 330.409 855.76 329.316 857.36V852.84C329.316 850.787 328.583 849.347 327.116 848.52C329.116 848.52 331.116 848.093 333.116 847.24C335.276 846.307 336.863 845.067 337.876 843.52C339.156 845.947 341.049 847.613 343.556 848.52H343.276C342.129 848.52 341.143 848.893 340.316 849.64C339.489 850.36 338.969 851.307 338.756 852.48C338.383 851.467 337.823 850.493 337.076 849.56C336.143 848.387 335.249 847.8 334.396 847.8C333.969 847.8 333.756 848.04 333.756 848.52C333.756 850.387 333.903 851.68 334.196 852.4C334.703 853.653 335.743 854.28 337.316 854.28C339.209 854.28 340.876 853.453 342.316 851.8V857.68C342.316 859.6 342.956 860.947 344.236 861.72Z" fill="white"/>
<path d="M733.797 548.71C741.563 547.93 747.525 555.324 750.02 558.417C752.078 560.97 755.818 565.612 754.528 569.095C753.472 571.948 749.945 571.628 749.122 574.918C748.423 577.712 750.02 581.692 750.025 581.713C750.486 583.295 751.294 585.239 752.728 585.597C754.072 585.934 755.054 584.646 757.236 583.658C757.236 583.658 760.004 582.402 763.545 582.686C767.607 583.011 772.432 586.12 774.362 591.425C776.663 597.745 773.469 603.402 772.561 605.015C771.436 607.013 769.189 610.998 765.35 611.81C761.744 612.574 755.431 610.822 752.733 609.871C752.187 609.679 750.912 609.209 750.03 609.871C748.829 610.763 749.072 613.189 749.127 613.755C749.529 617.809 752.266 618.627 752.733 621.522C753.085 623.723 751.468 625.929 748.224 630.262C742.784 637.521 741.301 636.72 738.31 641.913C736.743 644.632 736.024 646.806 734.704 646.768C733.464 646.731 732.973 644.771 731.099 641.913C729.784 639.909 728.118 638.312 724.79 635.118C719.79 630.32 717.98 629.754 717.578 627.35C717.301 625.683 718.303 623.846 719.379 621.527C720.445 619.23 720.981 619.059 721.179 617.644C721.616 614.593 719.612 612.104 719.379 611.821C718.709 611.014 717.901 610.037 716.676 609.882C715.257 609.7 714.647 610.79 712.167 611.821C711.979 611.901 710.362 612.563 708.562 612.793C707.709 612.9 705.07 613.13 702.253 611.821C698.161 609.919 696.386 606.03 695.944 605.026C693.479 599.417 695.319 594 695.944 592.403C696.515 590.939 698.141 586.697 702.253 584.635C706.206 582.654 710.308 583.765 711.716 584.149C711.716 584.149 713.467 584.625 717.122 586.088C717.122 586.088 719.071 584.641 719.825 583.177C720.877 581.131 720.038 578.182 718.923 576.382C717.276 573.727 715.575 574.47 714.414 572.498C712.187 568.711 715.937 561.627 718.923 557.936C720.877 555.516 722.856 554.116 724.329 553.08C726.922 551.269 730.042 549.09 733.792 548.71H733.797Z" fill="white" stroke="black" stroke-width="3" stroke-miterlimit="10"/>
<path d="M733.345 533.662C736.197 533.64 739.456 535.27 745.963 538.518C752.158 541.611 755.302 543.219 757.683 546.285C758.63 547.508 761.561 551.387 762.191 556.964C762.746 561.884 760.956 563.209 762.191 565.703C763.361 568.07 766.253 566.782 771.838 570.153C772.259 570.41 773.082 570.906 773.906 571.531C778.31 574.859 780.2 579.876 781.117 582.21C785.501 593.396 781.821 603.653 781.117 605.512C779.555 609.631 778.201 613.204 774.808 615.218C769.611 618.306 764.219 614.551 761.288 618.13C760.718 618.824 760.306 620.86 759.483 624.925C758.392 630.326 758.704 631.325 757.683 633.664C756.621 636.084 755.575 636.619 753.174 639.487C750.685 642.468 749.321 644.872 746.866 649.194C744.267 653.772 743.999 655.209 739.942 662.923C736.887 668.729 735.915 670.06 734.635 670.065C733.42 670.07 732.363 668.879 729.333 662.923C724.111 652.661 724.671 651.133 721.631 647.249C718.506 643.259 717.078 643.809 714.419 639.482C712.311 636.047 711.265 632.537 710.814 630.742C709.157 624.172 710.293 620.315 708.111 619.091C707.119 618.536 706.697 619.225 703.602 619.091C703.27 619.075 700.418 618.936 698.196 618.119C695.121 616.992 693.361 614.615 690.985 611.324C690.881 611.18 690.692 610.923 690.449 610.576C687.34 606.148 685.752 602.082 685.574 601.618C684.031 597.547 685.013 587.563 690.082 576.377C693.093 571.809 696.049 570.201 698.196 569.582C701.023 568.759 703.32 569.395 704.505 567.642C705.502 566.163 704.738 564.437 704.505 561.82C704.029 556.413 706.256 552.038 707.208 550.169C708.914 546.819 712.277 544.65 718.928 540.462C726.089 535.948 729.67 533.689 733.35 533.667L733.345 533.662Z" stroke="black" stroke-width="3" stroke-miterlimit="10"/>
<path d="M734.666 584.479L740.708 589.486L746.75 594.494M724.505 588.603L744.827 605.392M722.308 599.795L728.487 604.95L734.666 610.104" stroke="black" stroke-opacity="0.5" stroke-width="0.5"/>
<path d="M162.798 550.517C170.564 549.742 176.526 557.09 179.021 560.164C181.079 562.702 184.819 567.316 183.529 570.778C182.473 573.613 178.946 573.294 178.123 576.565C177.424 579.342 179.021 583.297 179.026 583.319C179.487 584.89 180.295 586.823 181.729 587.179C183.073 587.513 184.055 586.234 186.237 585.251C186.237 585.251 189.005 584.004 192.546 584.285C196.608 584.609 201.433 587.699 203.363 592.971C205.664 599.252 202.47 604.875 201.562 606.478C200.437 608.464 198.19 612.425 194.351 613.232C190.745 613.991 184.432 612.25 181.734 611.305C181.188 611.114 179.913 610.646 179.031 611.305C177.83 612.191 178.073 614.602 178.128 615.165C178.53 619.195 181.267 620.007 181.734 622.885C182.086 625.072 180.469 627.265 177.225 631.571C171.785 638.786 170.302 637.99 167.311 643.151C165.744 645.853 165.024 648.014 163.705 647.977C162.465 647.94 161.974 645.991 160.1 643.151C158.785 641.16 157.119 639.572 153.791 636.397C148.791 631.629 146.981 631.066 146.579 628.677C146.302 627.021 147.304 625.194 148.38 622.89C149.446 620.607 149.982 620.437 150.18 619.03C150.617 615.998 148.613 613.524 148.38 613.243C147.71 612.441 146.902 611.469 145.677 611.315C144.258 611.135 143.648 612.218 141.168 613.243C140.98 613.322 139.363 613.981 137.563 614.209C136.71 614.315 134.071 614.543 131.254 613.243C127.162 611.353 125.387 607.487 124.945 606.489C122.48 600.914 124.32 595.53 124.945 593.943C125.516 592.488 127.142 588.272 131.254 586.223C135.207 584.253 139.309 585.357 140.717 585.74C140.717 585.74 142.468 586.212 146.123 587.667C146.123 587.667 148.072 586.228 148.826 584.773C149.878 582.74 149.039 579.809 147.924 578.02C146.277 575.381 144.576 576.119 143.415 574.16C141.188 570.395 144.938 563.355 147.924 559.686C149.878 557.281 151.857 555.89 153.33 554.86C155.923 553.06 159.043 550.894 162.793 550.517H162.798Z" fill="white" stroke="black" stroke-width="3" stroke-miterlimit="10"/>
<path d="M162.345 535.56C165.197 535.539 168.456 537.158 174.963 540.387C181.158 543.461 184.302 545.059 186.683 548.106C187.63 549.322 190.561 553.177 191.191 558.72C191.746 563.61 189.956 564.927 191.191 567.406C192.361 569.758 195.253 568.479 200.838 571.829C201.259 572.084 202.082 572.578 202.906 573.199C207.31 576.507 209.2 581.492 210.117 583.813C214.501 594.93 210.821 605.125 210.117 606.972C208.555 611.066 207.201 614.618 203.808 616.62C198.611 619.688 193.219 615.956 190.288 619.513C189.718 620.203 189.306 622.226 188.483 626.267C187.392 631.635 187.704 632.628 186.683 634.953C185.621 637.358 184.575 637.889 182.174 640.74C179.685 643.703 178.321 646.092 175.866 650.388C173.267 654.938 172.999 656.366 168.942 664.033C165.887 669.804 164.915 671.126 163.635 671.132C162.42 671.137 161.363 669.953 158.333 664.033C153.111 653.833 153.671 652.315 150.631 648.455C147.506 644.489 146.078 645.036 143.419 640.735C141.311 637.321 140.265 633.833 139.814 632.049C138.157 625.518 139.293 621.685 137.111 620.469C136.119 619.917 135.697 620.602 132.602 620.469C132.27 620.453 129.418 620.315 127.196 619.503C124.121 618.382 122.361 616.02 119.985 612.749C119.881 612.606 119.692 612.351 119.449 612.006C116.34 607.604 114.752 603.564 114.574 603.102C113.031 599.056 114.013 589.133 119.082 578.015C122.093 573.475 125.049 571.877 127.196 571.261C130.023 570.443 132.32 571.075 133.505 569.334C134.502 567.863 133.738 566.148 133.505 563.546C133.029 558.173 135.256 553.825 136.208 551.966C137.914 548.637 141.277 546.482 147.928 542.319C155.089 537.833 158.67 535.587 162.35 535.566L162.345 535.56Z" stroke="black" stroke-width="3" stroke-miterlimit="10"/>
<path d="M163.666 586.068L169.708 591.044L175.75 596.021M153.505 590.166L173.827 606.852M151.308 601.29L157.487 606.413L163.666 611.536" stroke="black" stroke-opacity="0.5" stroke-width="0.5"/>
</g>
<defs>
<clipPath id="clip0_198_61798">
<rect width="900" height="2811" fill="white"/>
</clipPath>
</defs>
</svg>
