<svg width="1450" height="4474" viewBox="0 0 1450 4474" fill="none" xmlns="http://www.w3.org/2000/svg">
<g clip-path="url(#clip0_198_61776)">
<rect width="1450" height="4474" fill="white"/>
<path d="M158.971 79.0478C342.163 81.5095 525.355 79.0478 708.547 79.0478C891.739 79.0478 1087.88 81.5334 1277.52 79.0478C1277.49 79.0478 1280.03 128.759 1293.69 163.246C1316.78 221.609 1377.73 251.603 1377.76 251.459L1381 4192.57C1381 4192.57 1339.3 4206.67 1313.11 4240.68C1309.46 4245.42 1287.18 4275.15 1284 4316.88C1282.58 4335.45 1284 4369 1284 4369C1284 4369 155.846 4364.99 155.751 4364.99C155.751 4364.99 154.212 4272.47 112.795 4230.45C94.5369 4211.96 62 4196.56 62 4196.56C62 4196.35 65.2442 255.451 65.2442 255.451C65.2442 255.522 130.152 221.131 149.31 159.207C159.398 126.536 159.019 78.9761 159.019 79L158.971 79.0478Z" stroke="black" stroke-width="3" stroke-miterlimit="10"/>
<path d="M721.802 824C977.474 1099.5 1086.88 1222.87 1158.32 1360.08C1158.32 1360.08 1231.91 1501.38 1262.28 1653.37C1265.74 1670.67 1268.32 1687.54 1268.32 1687.54C1283.43 1786.06 1271.75 1813.44 1271.75 2145.37C1270.85 2367.26 1270.69 2589.15 1271.23 2811.1C1272.39 3269.1 1276.63 3727.07 1284 4185C911.341 4184.2 538.659 4183.41 166 4182.61C168.227 3543.56 171.898 2904.59 176.991 2265.64C178.577 2067.12 180.283 1868.64 182.154 1670.15C182.154 1670.15 182.202 1669.93 182.202 1669.91C182.202 1669.91 185.328 1656.57 188.478 1643.86C271.476 1311.08 443.368 1136.96 443.368 1136.96C459.759 1120.37 501.897 1079.75 552.894 1017.59C576.581 988.701 582.36 979.355 604.933 951.507C630.396 920.085 668.839 875.533 721.802 824Z" stroke="black" stroke-width="3" stroke-miterlimit="10"/>
<path d="M721.802 858.024C977.474 1130.74 1086.88 1252.86 1158.32 1388.67C1158.32 1388.67 1231.91 1528.53 1262.28 1679C1265.74 1696.13 1268.32 1712.81 1268.32 1712.81C1283.43 1810.34 1271.75 1837.43 1271.75 2166.01C1270.85 2385.66 1270.69 2605.31 1271.23 2825C1272.39 3278.37 1276.63 3731.7 1284 4185C911.341 4184.22 538.659 4183.41 166 4182.63C168.227 3550.05 171.898 2917.54 176.991 2285.05C178.577 2088.55 180.283 1892.07 182.154 1695.61C182.154 1695.61 182.202 1695.39 182.202 1695.37C182.202 1695.37 185.328 1682.17 188.478 1669.58C271.476 1340.17 443.368 1167.8 443.368 1167.8C459.759 1151.38 501.897 1111.17 552.894 1049.63C576.581 1021.05 582.36 1011.77 604.933 984.209C630.396 953.094 668.839 908.99 721.802 858V858.024Z" stroke="black" stroke-width="3" stroke-miterlimit="10"/>
<path d="M718.3 783.024C974.2 1061.89 1083.71 1186.75 1155.21 1325.65C1155.21 1325.65 1228.87 1468.68 1259.26 1622.51C1262.72 1640.03 1265.31 1657.08 1265.31 1657.08C1280.43 1756.81 1268.74 1784.5 1268.74 2120.5C1267.84 2345.1 1267.68 2569.7 1268.22 2794.35C1269.38 3257.94 1273.63 3721.48 1281 4185C908.008 4184.19 534.992 4183.39 162 4182.58C164.229 3535.74 167.903 2888.96 173 2242.21C174.589 2041.27 176.296 1840.38 178.169 1639.46C178.169 1639.46 178.216 1639.25 178.216 1639.23C178.216 1639.23 181.345 1625.71 184.499 1612.86C267.57 1276.01 439.616 1099.77 439.616 1099.77C456.022 1082.99 498.198 1041.88 549.24 978.938C572.948 949.708 578.733 940.225 601.326 912.061C626.812 880.246 665.289 835.155 718.3 783V783.024Z" stroke="black" stroke-width="3" stroke-miterlimit="10"/>
<ellipse cx="1363.5" cy="4332" rx="17.5" ry="18" fill="black"/>
<circle cx="1364" cy="4333" r="14" fill="white"/>
<ellipse cx="79.5" cy="4329" rx="17.5" ry="18" fill="black"/>
<ellipse cx="79.5" cy="4328.5" rx="13.5" ry="14.5" fill="white"/>
<circle cx="79.5" cy="96.5" r="17.5" fill="black"/>
<ellipse cx="79.5" cy="96.5" rx="13.5" ry="14.5" fill="white"/>
<circle cx="1363.5" cy="96.5" r="17.5" fill="black"/>
<ellipse cx="1364" cy="96.5" rx="14" ry="14.5" fill="white"/>
<path d="M388.218 1333.72C387.391 1333.96 386.805 1334.27 386.458 1334.64C386.138 1334.99 385.978 1335.55 385.978 1336.32V1340.84C385.978 1342.57 386.498 1343.96 387.538 1345L386.738 1345.64C384.525 1343.53 382.098 1342.48 379.458 1342.48C376.311 1342.48 373.871 1343.99 372.138 1347C370.938 1345.11 369.471 1344.16 367.738 1344.16C366.885 1344.16 366.165 1344.4 365.578 1344.88C365.018 1345.36 364.738 1345.99 364.738 1346.76C364.738 1347.56 365.045 1348.08 365.658 1348.32C365.978 1348.45 366.138 1348.57 366.138 1348.68C366.138 1348.87 365.978 1348.96 365.658 1348.96C364.938 1348.96 364.351 1348.57 363.898 1347.8C363.498 1347.11 363.298 1346.37 363.298 1345.6C363.298 1342.83 365.125 1341.16 368.778 1340.6V1330.88C367.818 1330.93 367.231 1331.19 367.018 1331.64C366.885 1331.93 366.818 1332.6 366.818 1333.64H365.578V1325.64H366.818V1326.64C366.818 1327.33 366.978 1327.79 367.298 1328C367.538 1328.16 368.031 1328.23 368.778 1328.2V1323.24C368.778 1320.44 367.218 1319.08 364.098 1319.16V1318.32H367.218C369.405 1318.32 371.138 1318.03 372.418 1317.44C372.978 1317.17 373.925 1316.55 375.258 1315.56C376.431 1314.68 377.738 1314.03 379.178 1313.6C379.631 1313.47 379.991 1313.4 380.258 1313.4C380.578 1313.4 380.898 1313.61 381.218 1314.04C383.218 1316.68 385.551 1318.11 388.218 1318.32V1319.16C387.205 1319.24 386.525 1319.49 386.178 1319.92C385.858 1320.32 385.698 1321.05 385.698 1322.12V1326.64C385.698 1328 385.031 1328.95 383.698 1329.48C383.085 1329.72 381.831 1329.95 379.938 1330.16C380.765 1330.27 382.018 1330.79 383.698 1331.72C385.271 1332.63 386.391 1333.08 387.058 1333.08C387.378 1333.08 387.765 1333.01 388.218 1332.88V1333.72ZM379.618 1327.52V1323.24C379.618 1322.04 379.111 1320.97 378.098 1320.04C377.218 1319.21 376.151 1318.65 374.898 1318.36V1329.84C376.418 1329.76 377.405 1329.65 377.858 1329.52C379.031 1329.17 379.618 1328.51 379.618 1327.52ZM379.618 1341.24V1334.48C379.618 1332.88 379.191 1331.87 378.338 1331.44C377.911 1331.23 376.765 1331.04 374.898 1330.88V1336.28C374.898 1338.01 375.098 1339.21 375.498 1339.88C376.031 1340.79 377.111 1341.24 378.738 1341.24H379.618ZM404.099 1329.52C403.139 1329.95 402.326 1331.05 401.659 1332.84C401.179 1334.12 400.832 1335.52 400.619 1337.04H400.579C400.499 1335.81 400.139 1334.43 399.499 1332.88C398.699 1330.96 397.832 1330 396.899 1330C396.099 1330 395.699 1330.65 395.699 1331.96V1340.08C396.899 1341.44 398.046 1342.25 399.139 1342.52C399.699 1342.65 401.112 1342.72 403.379 1342.72C401.886 1343.2 400.632 1343.76 399.619 1344.4C398.819 1344.91 397.766 1345.77 396.459 1347C395.872 1345.93 394.726 1344.96 393.019 1344.08C391.339 1343.17 389.859 1342.72 388.579 1342.72C389.192 1342.67 389.766 1342.07 390.299 1340.92C390.779 1339.88 391.019 1339 391.019 1338.28V1333.76C391.019 1331.87 390.192 1330.45 388.539 1329.52C390.272 1329.52 391.806 1327.85 393.139 1324.52C394.179 1327.27 395.379 1328.64 396.739 1328.64C398.099 1328.64 399.352 1327.27 400.499 1324.52L401.779 1327.44C402.312 1328.37 403.086 1329.07 404.099 1329.52ZM421.596 1342.4C420.476 1343.01 419.622 1343.65 419.036 1344.32C418.556 1344.85 417.996 1345.75 417.356 1347C415.862 1344.31 414.396 1342.96 412.956 1342.96C411.489 1342.96 410.009 1344.31 408.516 1347C407.742 1345.56 407.222 1344.67 406.956 1344.32C406.369 1343.6 405.556 1342.96 404.516 1342.4C405.902 1341.97 406.596 1340.72 406.596 1338.64C406.596 1337.17 406.196 1336.07 405.396 1335.32C406.249 1335.72 407.009 1335.92 407.676 1335.92C408.476 1335.92 409.369 1335.56 410.356 1334.84C411.342 1334.12 412.089 1333.76 412.596 1333.76C413.289 1333.76 414.049 1334.13 414.876 1334.88V1332.08C414.876 1331.49 414.676 1330.96 414.276 1330.48C413.902 1329.97 413.449 1329.72 412.916 1329.72C411.476 1329.72 410.009 1331.07 408.516 1333.76C407.769 1332.37 407.249 1331.49 406.956 1331.12C406.422 1330.43 405.609 1329.8 404.516 1329.24C405.689 1328.68 406.529 1328.04 407.036 1327.32C407.356 1326.87 407.849 1325.92 408.516 1324.48C409.902 1327.47 411.382 1328.96 412.956 1328.96C414.502 1328.96 415.969 1327.47 417.356 1324.48C417.942 1325.79 418.476 1326.73 418.956 1327.32C419.542 1327.99 420.422 1328.63 421.596 1329.24C420.956 1329.53 420.436 1330.01 420.036 1330.68C419.636 1331.35 419.436 1332.04 419.436 1332.76V1338.16C419.436 1339.31 419.542 1340.15 419.756 1340.68C420.022 1341.37 420.636 1341.95 421.596 1342.4ZM414.876 1339V1336.48C414.449 1335.36 413.769 1334.8 412.836 1334.8C411.636 1334.8 411.036 1336.01 411.036 1338.44C411.036 1339.59 411.102 1340.39 411.236 1340.84C411.502 1341.72 412.062 1342.16 412.916 1342.16C414.222 1342.16 414.876 1341.11 414.876 1339ZM437.324 1342.24C436.364 1342.27 435.111 1342.88 433.564 1344.08C432.871 1344.61 431.778 1345.59 430.284 1347C429.778 1346.09 428.618 1345.09 426.804 1344C424.991 1342.88 423.564 1342.29 422.524 1342.24C423.271 1342.19 423.871 1341.67 424.324 1340.68C424.724 1339.85 424.924 1339.01 424.924 1338.16V1333.68C424.924 1331.63 424.111 1330.15 422.484 1329.24C427.311 1329.24 430.778 1327.67 432.884 1324.52C433.578 1325.83 434.164 1326.76 434.644 1327.32C435.258 1328.04 436.151 1328.68 437.324 1329.24C436.364 1329.67 435.524 1330.8 434.804 1332.64C434.271 1333.97 433.898 1335.4 433.684 1336.92H433.604C433.391 1335.11 433.031 1333.51 432.524 1332.12C431.698 1329.91 430.698 1328.84 429.524 1328.92V1337.84C429.524 1340.77 432.124 1342.24 437.324 1342.24ZM452.598 1342.24C451.238 1342.37 449.891 1342.89 448.558 1343.8C447.251 1344.71 446.251 1345.77 445.558 1347C444.891 1345.83 443.784 1344.79 442.238 1343.88C440.851 1343.05 439.411 1342.51 437.918 1342.24C439.438 1341.55 440.198 1340.4 440.198 1338.8V1333.68C440.198 1331.6 439.384 1330.11 437.758 1329.2C439.838 1329.2 441.771 1328.83 443.558 1328.08C445.531 1327.25 447.064 1326.05 448.158 1324.48C448.798 1325.71 449.384 1326.64 449.918 1327.28C450.584 1328.05 451.478 1328.69 452.598 1329.2C451.931 1329.79 451.424 1330.76 451.078 1332.12C450.704 1333.61 450.278 1334.63 449.798 1335.16C448.864 1336.23 447.198 1337.07 444.798 1337.68L444.758 1338.36C444.651 1340.15 445.571 1341.32 447.518 1341.88C448.504 1342.15 450.198 1342.27 452.598 1342.24ZM448.278 1333.36C448.278 1332.59 447.878 1331.65 447.078 1330.56C446.278 1329.44 445.518 1328.88 444.798 1328.88V1336.76C445.704 1336.57 446.504 1336.19 447.198 1335.6C447.918 1335.01 448.278 1334.27 448.278 1333.36ZM463.55 1315.64C462.404 1315.96 461.51 1316.96 460.87 1318.64C460.364 1319.95 460.11 1321.33 460.11 1322.8V1337.84C460.11 1339.01 460.23 1339.87 460.47 1340.4C460.79 1341.07 461.417 1341.63 462.35 1342.08C461.284 1342.67 460.39 1343.36 459.67 1344.16C459.19 1344.69 458.564 1345.64 457.79 1347C457.124 1345.77 456.497 1344.83 455.91 1344.16C455.217 1343.36 454.31 1342.67 453.19 1342.08C454.15 1341.65 454.764 1341.09 455.03 1340.4C455.244 1339.87 455.35 1339.01 455.35 1337.84V1333.32C455.35 1331.05 454.617 1329.51 453.15 1328.68C454.137 1328.09 454.777 1327.43 455.07 1326.68C455.284 1326.12 455.39 1325.2 455.39 1323.92C455.39 1321.47 454.617 1319.99 453.07 1319.48C453.257 1319.51 453.51 1319.52 453.83 1319.52C455.19 1319.52 456.83 1318.84 458.75 1317.48C460.777 1316.04 462.377 1315.21 463.55 1315V1315.64ZM477.949 1342.24C476.589 1342.37 475.243 1342.89 473.909 1343.8C472.603 1344.71 471.603 1345.77 470.909 1347C470.243 1345.83 469.136 1344.79 467.589 1343.88C466.203 1343.05 464.763 1342.51 463.269 1342.24C464.789 1341.55 465.549 1340.4 465.549 1338.8V1333.68C465.549 1331.6 464.736 1330.11 463.109 1329.2C465.189 1329.2 467.123 1328.83 468.909 1328.08C470.883 1327.25 472.416 1326.05 473.509 1324.48C474.149 1325.71 474.736 1326.64 475.269 1327.28C475.936 1328.05 476.829 1328.69 477.949 1329.2C477.283 1329.79 476.776 1330.76 476.429 1332.12C476.056 1333.61 475.629 1334.63 475.149 1335.16C474.216 1336.23 472.549 1337.07 470.149 1337.68L470.109 1338.36C470.003 1340.15 470.923 1341.32 472.869 1341.88C473.856 1342.15 475.549 1342.27 477.949 1342.24ZM473.629 1333.36C473.629 1332.59 473.229 1331.65 472.429 1330.56C471.629 1329.44 470.869 1328.88 470.149 1328.88V1336.76C471.056 1336.57 471.856 1336.19 472.549 1335.6C473.269 1335.01 473.629 1334.27 473.629 1333.36ZM489.302 1332.6H488.422V1331.88C488.449 1331.67 488.462 1331.43 488.462 1331.16C488.462 1330.2 488.275 1329.56 487.902 1329.24C487.555 1328.92 486.875 1328.76 485.862 1328.76V1337.84C485.862 1340.32 486.622 1341.92 488.142 1342.64C486.889 1343.33 485.995 1343.92 485.462 1344.4C484.849 1344.99 484.222 1345.85 483.582 1347C482.862 1345.75 482.235 1344.87 481.702 1344.36C481.329 1343.99 480.422 1343.41 478.982 1342.64C479.889 1342.21 480.502 1341.55 480.822 1340.64C481.035 1340.03 481.142 1339.09 481.142 1337.84V1328.76H478.422V1326.96H481.142V1322.8C481.142 1322.08 480.769 1321.4 480.022 1320.76C479.942 1320.68 479.529 1320.35 478.782 1319.76L478.822 1319.72C479.462 1319.64 480.369 1319.44 481.542 1319.12C482.155 1318.91 483.369 1318.13 485.182 1316.8C486.569 1315.79 487.915 1315.19 489.222 1315L489.182 1315.52C486.969 1316.21 485.862 1318.63 485.862 1322.76V1326.96C487.115 1326.96 487.875 1326.79 488.142 1326.44C488.329 1326.2 488.422 1325.43 488.422 1324.12H489.302V1332.6ZM507.736 1342.72C503.309 1342.72 499.896 1344.15 497.496 1347C496.163 1345.43 494.816 1344.64 493.456 1344.64C492.149 1344.64 491.189 1345.43 490.576 1347H490.336C490.469 1345.08 490.909 1343.71 491.656 1342.88C492.056 1342.45 492.843 1341.96 494.016 1341.4C495.189 1340.84 496.016 1340.24 496.496 1339.6C496.869 1340.24 497.483 1340.95 498.336 1341.72C499.269 1342.57 500.056 1343 500.696 1343C501.123 1343 501.336 1342.75 501.336 1342.24V1338.64C501.336 1336.85 500.189 1335.96 497.896 1335.96C495.603 1335.96 493.909 1336.76 492.816 1338.36V1333.84C492.816 1331.79 492.083 1330.35 490.616 1329.52C492.616 1329.52 494.616 1329.09 496.616 1328.24C498.776 1327.31 500.363 1326.07 501.376 1324.52C502.656 1326.95 504.549 1328.61 507.056 1329.52H506.776C505.629 1329.52 504.643 1329.89 503.816 1330.64C502.989 1331.36 502.469 1332.31 502.256 1333.48C501.883 1332.47 501.323 1331.49 500.576 1330.56C499.643 1329.39 498.749 1328.8 497.896 1328.8C497.469 1328.8 497.256 1329.04 497.256 1329.52C497.256 1331.39 497.403 1332.68 497.696 1333.4C498.203 1334.65 499.243 1335.28 500.816 1335.28C502.709 1335.28 504.376 1334.45 505.816 1332.8V1338.68C505.816 1340.6 506.456 1341.95 507.736 1342.72Z" fill="white"/>
<path d="M1180.65 859.239C1193.15 857.979 1202.75 869.925 1206.76 874.923C1210.08 879.049 1216.1 886.55 1214.02 892.178C1212.32 896.788 1206.64 896.27 1205.32 901.587C1204.19 906.102 1206.76 912.532 1206.77 912.567C1207.51 915.122 1208.82 918.264 1211.12 918.842C1213.29 919.386 1214.87 917.306 1218.38 915.709C1218.38 915.709 1222.84 913.681 1228.54 914.138C1235.08 914.665 1242.84 919.688 1245.95 928.26C1249.65 938.471 1244.51 947.613 1243.05 950.219C1241.24 953.448 1237.62 959.887 1231.44 961.199C1225.64 962.434 1215.47 959.602 1211.13 958.066C1210.25 957.755 1208.2 956.996 1206.78 958.066C1204.85 959.507 1205.24 963.426 1205.33 964.341C1205.97 970.893 1210.38 972.214 1211.13 976.892C1211.7 980.448 1209.1 984.013 1203.87 991.014C1195.12 1002.74 1192.73 1001.45 1187.91 1009.84C1185.39 1014.23 1184.23 1017.75 1182.11 1017.69C1180.11 1017.63 1179.32 1014.46 1176.31 1009.84C1174.19 1006.6 1171.51 1004.02 1166.15 998.86C1158.1 991.109 1155.19 990.194 1154.54 986.31C1154.09 983.616 1155.71 980.647 1157.44 976.901C1159.16 973.189 1160.02 972.913 1160.34 970.625C1161.04 965.696 1157.82 961.674 1157.44 961.217C1156.36 959.913 1155.06 958.333 1153.09 958.083C1150.81 957.79 1149.82 959.551 1145.83 961.217C1145.53 961.346 1142.93 962.416 1140.03 962.788C1138.65 962.96 1134.41 963.331 1129.87 961.217C1123.28 958.144 1120.43 951.86 1119.72 950.237C1115.75 941.173 1118.71 932.42 1119.72 929.839C1120.63 927.474 1123.25 920.621 1129.87 917.289C1136.23 914.086 1142.84 915.882 1145.1 916.503C1145.1 916.503 1147.92 917.271 1153.81 919.637C1153.81 919.637 1156.94 917.297 1158.16 914.932C1159.85 911.626 1158.5 906.861 1156.71 903.952C1154.05 899.662 1151.32 900.862 1149.45 897.677C1145.86 891.557 1151.9 880.111 1156.71 874.146C1159.85 870.236 1163.04 867.975 1165.41 866.3C1169.58 863.374 1174.61 859.852 1180.64 859.239H1180.65Z" fill="white" stroke="black" stroke-width="3" stroke-miterlimit="10"/>
<path d="M1179.92 834.923C1184.51 834.888 1189.76 837.521 1200.23 842.769C1210.21 847.767 1215.27 850.365 1219.1 855.32C1220.62 857.297 1225.34 863.564 1226.36 872.575C1227.25 880.525 1224.37 882.666 1226.36 886.697C1228.24 890.521 1232.9 888.441 1241.89 893.888C1242.56 894.302 1243.89 895.105 1245.21 896.115C1252.3 901.492 1255.35 909.598 1256.82 913.37C1263.88 931.445 1257.96 948.018 1256.82 951.022C1254.31 957.678 1252.13 963.452 1246.67 966.706C1238.3 971.696 1229.62 965.627 1224.9 971.411C1223.99 972.533 1223.32 975.822 1222 982.391C1220.24 991.118 1220.74 992.732 1219.1 996.513C1217.39 1000.42 1215.71 1001.29 1211.84 1005.92C1207.83 1010.74 1205.64 1014.62 1201.69 1021.61C1197.5 1029 1197.07 1031.33 1190.54 1043.79C1185.62 1053.17 1184.06 1055.32 1182 1055.33C1180.04 1055.34 1178.34 1053.41 1173.46 1043.79C1165.06 1027.21 1165.96 1024.74 1161.06 1018.46C1156.03 1012.02 1153.74 1012.9 1149.46 1005.91C1146.06 1000.36 1144.38 994.691 1143.65 991.791C1140.99 981.174 1142.81 974.941 1139.3 972.965C1137.7 972.067 1137.03 973.18 1132.04 972.965C1131.51 972.939 1126.92 972.714 1123.34 971.394C1118.39 969.572 1115.56 965.731 1111.73 960.414C1111.56 960.181 1111.26 959.766 1110.87 959.205C1105.86 952.049 1103.31 945.481 1103.02 944.73C1100.54 938.152 1102.12 922.019 1110.28 903.944C1115.13 896.563 1119.88 893.965 1123.34 892.964C1127.89 891.635 1131.59 892.662 1133.5 889.831C1135.1 887.44 1133.87 884.651 1133.5 880.422C1132.73 871.686 1136.31 864.617 1137.85 861.596C1140.59 856.183 1146.01 852.679 1156.71 845.911C1168.24 838.617 1174.01 834.966 1179.93 834.932L1179.92 834.923Z" stroke="black" stroke-width="3" stroke-miterlimit="10"/>
<path d="M1182.05 917.036L1191.77 925.127L1201.5 933.218M1165.69 923.699L1198.41 950.828M1162.15 941.785L1172.1 950.114L1182.05 958.443" stroke="black" stroke-opacity="0.5" stroke-width="0.5"/>
<path d="M258.083 862.046C270.775 860.79 280.517 872.692 284.594 877.671C287.958 881.781 294.069 889.254 291.961 894.861C290.235 899.453 284.472 898.937 283.127 904.234C281.984 908.731 284.594 915.138 284.602 915.172C285.356 917.718 286.677 920.848 289.019 921.424C291.216 921.966 292.82 919.893 296.387 918.302C296.387 918.302 300.909 916.282 306.696 916.737C313.334 917.262 321.22 922.267 324.373 930.806C328.133 940.979 322.914 950.086 321.431 952.683C319.591 955.899 315.919 962.314 309.646 963.621C303.754 964.851 293.436 962.03 289.027 960.499C288.136 960.19 286.053 959.433 284.61 960.499C282.649 961.936 283.046 965.84 283.135 966.751C283.792 973.278 288.266 974.594 289.027 979.255C289.603 982.798 286.961 986.349 281.66 993.323C272.769 1005.01 270.346 1003.72 265.459 1012.08C262.897 1016.46 261.722 1019.96 259.566 1019.9C257.54 1019.83 256.738 1016.68 253.674 1012.08C251.526 1008.85 248.803 1006.28 243.365 1001.14C235.195 993.418 232.237 992.506 231.58 988.637C231.126 985.954 232.764 982.995 234.522 979.263C236.265 975.566 237.14 975.29 237.464 973.012C238.178 968.101 234.903 964.094 234.522 963.638C233.428 962.34 232.107 960.766 230.105 960.517C227.787 960.224 226.79 961.979 222.738 963.638C222.43 963.767 219.788 964.834 216.846 965.203C215.452 965.375 211.14 965.745 206.536 963.638C199.85 960.577 196.948 954.317 196.227 952.7C192.199 943.671 195.206 934.951 196.227 932.38C197.159 930.023 199.817 923.196 206.536 919.876C212.996 916.686 219.699 918.474 222 919.094C222 919.094 224.861 919.859 230.835 922.215C230.835 922.215 234.02 919.885 235.252 917.529C236.97 914.235 235.6 909.488 233.777 906.59C231.086 902.316 228.306 903.512 226.409 900.338C222.77 894.241 228.898 882.839 233.777 876.897C236.97 873.001 240.204 870.748 242.611 869.08C246.85 866.165 251.948 862.656 258.075 862.046H258.083Z" fill="white" stroke="black" stroke-width="3" stroke-miterlimit="10"/>
<path d="M257.345 837.821C262.006 837.787 267.33 840.41 277.964 845.638C288.087 850.617 293.225 853.206 297.116 858.142C298.664 860.111 303.454 866.354 304.483 875.332C305.391 883.252 302.465 885.384 304.483 889.4C306.396 893.21 311.121 891.137 320.247 896.564C320.936 896.976 322.281 897.776 323.627 898.782C330.824 904.14 333.912 912.214 335.411 915.972C342.576 933.979 336.562 950.49 335.411 953.483C332.858 960.113 330.645 965.866 325.102 969.108C316.608 974.078 307.798 968.033 303.008 973.794C302.076 974.912 301.403 978.189 300.058 984.733C298.275 993.427 298.785 995.035 297.116 998.801C295.381 1002.7 293.671 1003.56 289.748 1008.17C285.68 1012.97 283.451 1016.84 279.439 1023.8C275.192 1031.17 274.754 1033.48 268.125 1045.9C263.132 1055.25 261.544 1057.39 259.453 1057.4C257.467 1057.41 255.741 1055.49 250.788 1045.9C242.254 1029.38 243.17 1026.92 238.202 1020.67C233.096 1014.25 230.761 1015.13 226.417 1008.17C222.973 1002.64 221.263 996.987 220.525 994.097C217.818 983.52 219.674 977.311 216.108 975.342C214.487 974.448 213.798 975.557 208.741 975.342C208.198 975.316 203.537 975.093 199.906 973.777C194.881 971.963 192.004 968.136 188.122 962.839C187.952 962.607 187.644 962.194 187.247 961.635C182.165 954.506 179.571 947.962 179.279 947.214C176.759 940.661 178.364 924.589 186.647 906.582C191.566 899.229 196.397 896.641 199.906 895.643C204.526 894.319 208.279 895.342 210.216 892.522C211.845 890.14 210.597 887.362 210.216 883.149C209.438 874.446 213.077 867.403 214.633 864.393C217.421 859.002 222.916 855.51 233.785 848.768C245.488 841.502 251.34 837.864 257.353 837.83L257.345 837.821Z" stroke="black" stroke-width="3" stroke-miterlimit="10"/>
<path d="M259.503 919.625L269.377 927.685L279.25 935.746M242.898 926.263L276.108 953.289M239.308 944.28L249.405 952.578L259.503 960.875" stroke="black" stroke-opacity="0.5" stroke-width="0.5"/>
</g>
<defs>
<clipPath id="clip0_198_61776">
<rect width="1450" height="4474" fill="white"/>
</clipPath>
</defs>
</svg>
