<svg width="450" height="1506" viewBox="0 0 450 1506" fill="none" xmlns="http://www.w3.org/2000/svg">
<rect width="450" height="1506" fill="white"/>
<path d="M42 69.5C42 74.2461 38.368 78 34 78C29.632 78 26 74.2461 26 69.5C26 64.7539 29.632 61 34 61C38.368 61 42 64.7539 42 69.5Z" fill="white" stroke="black" stroke-width="2"/>
<path d="M427 69.5C427 74.2461 423.368 78 419 78C414.632 78 411 74.2461 411 69.5C411 64.7539 414.632 61 419 61C423.368 61 427 64.7539 427 69.5Z" fill="white" stroke="black" stroke-width="2"/>
<path d="M90.6378 313.428C94.5528 313.067 97.5578 316.493 98.8153 317.926C99.8528 319.11 101.738 321.261 101.088 322.875C100.555 324.197 98.7778 324.049 98.3628 325.574C98.0103 326.868 98.8153 328.713 98.8178 328.722C99.0503 329.455 99.4578 330.356 100.18 330.522C100.858 330.678 101.353 330.082 102.453 329.624C102.453 329.624 103.848 329.042 105.633 329.173C107.68 329.324 110.113 330.765 111.085 333.223C112.245 336.152 110.635 338.773 110.178 339.521C109.61 340.447 108.478 342.294 106.543 342.67C104.725 343.024 101.543 342.212 100.183 341.771C99.9078 341.682 99.2653 341.464 98.8203 341.771C98.2153 342.185 98.3378 343.309 98.3653 343.571C98.5678 345.45 99.9478 345.829 100.183 347.17C100.36 348.19 99.5453 349.213 97.9103 351.22C95.1678 354.585 94.4203 354.213 92.9128 356.62C92.1228 357.88 91.7603 358.887 91.0953 358.87C90.4703 358.853 90.2228 357.944 89.2778 356.62C88.6153 355.691 87.7753 354.951 86.0978 353.471C83.5778 351.248 82.6653 350.985 82.4628 349.871C82.3228 349.099 82.8278 348.247 83.3703 347.173C83.9078 346.108 84.1778 346.029 84.2778 345.373C84.4978 343.96 83.4878 342.806 83.3703 342.675C83.0328 342.301 82.6253 341.848 82.0078 341.776C81.2928 341.692 80.9853 342.197 79.7353 342.675C79.6403 342.712 78.8253 343.019 77.9178 343.125C77.4878 343.175 76.1578 343.281 74.7378 342.675C72.6753 341.793 71.7803 339.991 71.5578 339.526C70.3153 336.926 71.2428 334.416 71.5578 333.676C71.8453 332.998 72.6653 331.032 74.7378 330.077C76.7303 329.158 78.7978 329.673 79.5078 329.851C79.5078 329.851 80.3903 330.072 82.2328 330.75C82.2328 330.75 83.2153 330.079 83.5953 329.401C84.1253 328.453 83.7028 327.086 83.1403 326.252C82.3103 325.021 81.4528 325.366 80.8678 324.452C79.7453 322.697 81.6353 319.414 83.1403 317.704C84.1253 316.582 85.1228 315.934 85.8653 315.453C87.1728 314.614 88.7453 313.604 90.6353 313.428H90.6378Z" fill="white" stroke="black" stroke-miterlimit="10"/>
<path d="M90.4097 307.721C91.8472 307.711 93.4897 308.466 96.7697 309.972C99.8922 311.405 101.477 312.15 102.677 313.571C103.155 314.138 104.632 315.935 104.95 318.52C105.23 320.8 104.327 321.414 104.95 322.57C105.54 323.666 106.997 323.07 109.812 324.632C110.025 324.751 110.44 324.981 110.855 325.271C113.075 326.813 114.027 329.137 114.49 330.219C116.7 335.403 114.845 340.156 114.49 341.018C113.702 342.926 113.02 344.583 111.31 345.516C108.69 346.947 105.972 345.206 104.495 346.865C104.207 347.187 104 348.13 103.585 350.014C103.035 352.517 103.192 352.98 102.677 354.064C102.142 355.185 101.615 355.433 100.405 356.762C99.1497 358.144 98.4622 359.258 97.2247 361.26C95.9147 363.382 95.7797 364.048 93.7347 367.623C92.1947 370.314 91.7047 370.93 91.0597 370.932C90.4472 370.935 89.9147 370.383 88.3872 367.623C85.7547 362.867 86.0372 362.159 84.5047 360.359C82.9297 358.51 82.2097 358.765 80.8697 356.76C79.8072 355.168 79.2797 353.542 79.0522 352.71C78.2172 349.665 78.7897 347.878 77.6897 347.311C77.1897 347.053 76.9772 347.372 75.4172 347.311C75.2497 347.303 73.8122 347.239 72.6922 346.86C71.1422 346.338 70.2547 345.236 69.0572 343.711C69.0047 343.644 68.9097 343.525 68.7872 343.365C67.2197 341.312 66.4197 339.428 66.3297 339.213C65.5522 337.327 66.0472 332.7 68.6022 327.516C70.1197 325.399 71.6097 324.654 72.6922 324.367C74.1172 323.986 75.2747 324.28 75.8722 323.468C76.3747 322.783 75.9897 321.983 75.8722 320.77C75.6322 318.265 76.7547 316.237 77.2347 315.371C78.0947 313.819 79.7897 312.814 83.1422 310.873C86.7522 308.781 88.5572 307.734 90.4122 307.724L90.4097 307.721Z" stroke="black" stroke-miterlimit="10"/>
<path d="M91.0762 330.004L94.1217 332.325L97.1672 334.645M85.9541 331.915L96.1982 339.695M84.8467 337.102L87.9614 339.491L91.0762 341.879" stroke="black" stroke-opacity="0.5" stroke-width="0.5"/>
<path d="M225.53 283.008C303.055 373.586 336.23 414.143 357.891 459.259C357.891 459.259 380.206 505.714 389.414 555.681C390.463 561.371 391.245 566.908 391.245 566.908C395.828 599.303 392.287 608.297 392.287 717.432C392.014 790.384 391.964 863.336 392.129 936.304C392.481 1086.88 393.766 1237.44 396 1388C283.002 1387.74 169.998 1387.48 57 1387.21C57.6751 1177.11 58.7884 967.036 60.3325 756.965C60.8137 691.698 61.3309 626.446 61.8983 561.187C61.8983 561.187 61.9126 561.117 61.9126 561.11C61.9126 561.11 62.8607 556.72 63.8159 552.547C88.9824 443.134 141.104 385.891 141.104 385.891C146.074 380.439 158.851 367.087 174.314 346.643C181.496 337.148 183.249 334.068 190.093 324.92C197.814 314.586 209.471 299.941 225.53 283V283.008Z" stroke="black" stroke-miterlimit="10"/>
<path d="M69.0286 45C124.86 46.1939 166.226 45 222.058 45C277.889 45 337.671 46.1939 395.47 45C395.462 45 396.235 69.0061 400.396 85.6632C405.355 105.517 426.016 111.887 426.024 111.818C426.024 111.818 427 1386.73 427 1386.75C427 1386.75 414.291 1393.55 406.305 1409.98C405.189 1412.27 398.405 1426.61 397.437 1446.77C397.437 1449 397.437 1449 397.437 1449C397.437 1449 53.595 1447.06 53.5715 1447.06C53.5715 1447.06 53.1032 1425.33 40.4802 1405.04C34.922 1396.1 25 1388.68 25 1388.68C25 1388.58 25.9914 113.765 25.9914 113.754C25.9914 108.702 44.6846 111.842 50.5238 81.9474C53.5995 66.1828 54.563 44.9884 54.563 45L69.0286 45Z" stroke="black" stroke-miterlimit="10"/>
<circle cx="418" cy="1432" r="8" fill="white" stroke="black" stroke-width="2"/>
<path d="M362.116 313.428C366.094 313.067 369.147 316.493 370.425 317.926C371.479 319.11 373.395 321.261 372.734 322.875C372.193 324.197 370.387 324.049 369.965 325.574C369.607 326.868 370.425 328.713 370.428 328.722C370.664 329.455 371.078 330.356 371.812 330.522C372.501 330.678 373.004 330.082 374.121 329.624C374.121 329.624 375.539 329.042 377.353 329.173C379.433 329.324 381.905 330.765 382.893 333.223C384.072 336.152 382.436 338.773 381.971 339.521C381.394 340.447 380.244 342.294 378.277 342.67C376.431 343.024 373.197 342.212 371.815 341.771C371.535 341.682 370.883 341.464 370.43 341.771C369.816 342.185 369.94 343.309 369.968 343.571C370.174 345.45 371.576 345.829 371.815 347.17C371.995 348.19 371.167 349.213 369.506 351.22C366.719 354.585 365.959 354.213 364.428 356.62C363.625 357.88 363.256 358.887 362.581 358.87C361.946 358.853 361.694 357.944 360.734 356.62C360.061 355.691 359.207 354.951 357.503 353.471C354.942 351.248 354.015 350.985 353.809 349.871C353.667 349.099 354.18 348.247 354.731 347.173C355.277 346.108 355.552 346.029 355.653 345.373C355.877 343.96 354.851 342.806 354.731 342.675C354.388 342.301 353.974 341.848 353.347 341.776C352.62 341.692 352.308 342.197 351.038 342.675C350.941 342.712 350.113 343.019 349.191 343.125C348.754 343.175 347.402 343.281 345.959 342.675C343.864 341.793 342.954 339.991 342.728 339.526C341.466 336.926 342.408 334.416 342.728 333.676C343.02 332.998 343.853 331.032 345.959 330.077C347.984 329.158 350.085 329.673 350.806 329.851C350.806 329.851 351.703 330.072 353.575 330.75C353.575 330.75 354.574 330.079 354.96 329.401C355.498 328.453 355.069 327.086 354.497 326.252C353.654 325.021 352.783 325.366 352.188 324.452C351.048 322.697 352.968 319.414 354.497 317.704C355.498 316.582 356.512 315.934 357.266 315.453C358.595 314.614 360.193 313.604 362.113 313.428H362.116Z" fill="white" stroke="black" stroke-miterlimit="10"/>
<path d="M361.885 307.721C363.345 307.711 365.014 308.466 368.347 309.972C371.52 311.405 373.131 312.15 374.35 313.571C374.835 314.138 376.336 315.935 376.659 318.52C376.944 320.8 376.027 321.414 376.659 322.57C377.259 323.666 378.74 323.07 381.6 324.632C381.816 324.751 382.238 324.981 382.659 325.271C384.915 326.813 385.883 329.137 386.353 330.219C388.599 335.403 386.714 340.156 386.353 341.018C385.553 342.926 384.859 344.583 383.122 345.516C380.459 346.947 377.698 345.206 376.197 346.865C375.905 347.187 375.694 348.13 375.272 350.014C374.713 352.517 374.873 352.98 374.35 354.064C373.806 355.185 373.27 355.433 372.041 356.762C370.766 358.144 370.067 359.258 368.809 361.26C367.478 363.382 367.341 364.048 365.263 367.623C363.698 370.314 363.2 370.93 362.545 370.932C361.923 370.935 361.382 370.383 359.829 367.623C357.154 362.867 357.442 362.159 355.884 360.359C354.284 358.51 353.552 358.765 352.191 356.76C351.111 355.168 350.575 353.542 350.344 352.71C349.495 349.665 350.077 347.878 348.959 347.311C348.451 347.053 348.235 347.372 346.65 347.311C346.48 347.303 345.019 347.239 343.881 346.86C342.306 346.338 341.404 345.236 340.188 343.711C340.134 343.644 340.038 343.525 339.913 343.365C338.321 341.312 337.508 339.428 337.416 339.213C336.626 337.327 337.129 332.7 339.725 327.516C341.267 325.399 342.781 324.654 343.881 324.367C345.329 323.986 346.505 324.28 347.113 323.468C347.623 322.783 347.232 321.983 347.113 320.77C346.869 318.265 348.009 316.237 348.497 315.371C349.371 313.819 351.093 312.814 354.5 310.873C358.168 308.781 360.002 307.734 361.887 307.724L361.885 307.721Z" stroke="black" stroke-miterlimit="10"/>
<path d="M362.56 330.004L365.655 332.325L368.75 334.645M357.356 331.915L367.765 339.695M356.23 337.102L359.395 339.491L362.56 341.879" stroke="black" stroke-opacity="0.5" stroke-width="0.5"/>
<circle cx="33" cy="1432" r="8" fill="white" stroke="black" stroke-width="2"/>
</svg>
