<svg id="Layer_1" data-name="Layer 1" xmlns="http://www.w3.org/2000/svg" xmlns:xlink="http://www.w3.org/1999/xlink" viewBox="0 0 1920 1080"><defs><style>.cls-1{fill:none;}.cls-2{fill:#2f1a36;}.cls-3{fill:#4c3355;}.cls-4{fill:url(#New_brick);}</style><pattern id="New_brick" data-name="New brick" width="140" height="90" patternUnits="userSpaceOnUse" viewBox="0 0 140 90"><rect class="cls-1" width="140" height="90"/><rect class="cls-2" x="70.5" y="68" width="139" height="44"/><path class="cls-3" d="M209,68.5H71v43H209v-43m1-1v45H70v-45Z"/><rect class="cls-2" x="-69.5" y="68" width="139" height="44"/><path class="cls-3" d="M69,68.5H-69v43H69v-43m1-1v45H-70v-45Z"/><rect class="cls-2" x="0.5" y="23" width="139" height="44"/><path class="cls-3" d="M139,23.5H1v43H139v-43m1-1v45H0v-45Z"/><rect class="cls-2" x="70.5" y="-22" width="139" height="44"/><path class="cls-3" d="M209-21.5H71v43H209v-43m1-1v45H70v-45Z"/><rect class="cls-2" x="-69.5" y="-22" width="139" height="44"/><path class="cls-3" d="M69-21.5H-69v43H69v-43m1-1v45H-70v-45Z"/></pattern></defs><rect class="cls-4" width="1920" height="1080"/></svg>